<?xml version="1.0" encoding="utf-8"?><svg version="1.1" id="Layer_1" xmlns="http://www.w3.org/2000/svg" xmlns:xlink="http://www.w3.org/1999/xlink" x="0px" y="0px" viewBox="0 0 87.04 122.88" style="enable-background:new 0 0 87.04 122.88" xml:space="preserve"><style type="text/css">.st0{fill-rule:evenodd;clip-rule:evenodd;}</style><g><path class="st0" d="M43.52,0c9.46,0,17.13,7.67,17.13,17.13c0,9.46-7.67,17.13-17.13,17.13c-9.46,0-17.13-7.67-17.13-17.13 C26.39,7.67,34.06,0,43.52,0L43.52,0z M25.36,77.83l13.61,13.79l-10.03,10.03l8.04,8.25l2.74,2.81c4.69,6.2-2.34,13.56-8.45,8.45 l-17.84-18.21c-2.7-3.74-3.5-7.8-0.74-12.45L25.36,77.83L25.36,77.83z M61.67,77.83L48.07,91.63l10.03,10.03l-8.04,8.25l-2.74,2.81 c-4.69,6.2,2.34,13.56,8.45,8.45l17.84-18.21c2.7-3.74,3.5-7.8,0.74-12.45L61.67,77.83L61.67,77.83z M84.26,73.29L84.26,73.29 c-2.79,2.01-6.35,1.08-8.72-1.41L61.87,57.55v13.04H25.13v-13L11.5,71.88c-2.37,2.49-5.94,3.42-8.72,1.41l0,0 c-2.79-2.01-3.87-6.33-1.41-8.72l17.95-17.44c2.92-2.84,8.54-9.56,12.33-9.56H55.7c3.55,0,9.05,6.67,12.01,9.56l17.95,17.44 C88.13,66.96,87.04,71.28,84.26,73.29L84.26,73.29z"/></g></svg>